<?xml version="1.0" encoding="UTF-8" standalone="no" ?>
<!DOCTYPE svg PUBLIC "-//W3C//DTD SVG 1.1//EN" "http://www.w3.org/Graphics/SVG/1.1/DTD/svg11.dtd">
<svg xmlns="http://www.w3.org/2000/svg" xmlns:xlink="http://www.w3.org/1999/xlink" version="1.1" width="47" height="41" viewBox="0 0 47 41" xml:space="preserve">
<desc>Created with Fabric.js 4.6.0</desc>
<defs>
</defs>
<g transform="matrix(5.75 0 0 5.75 23.2 20.49)" id="ZyQNEAHFZ29TvxQoFW1K0"  >
<path style="stroke: rgb(63,197,212); stroke-width: 0; stroke-dasharray: none; stroke-linecap: butt; stroke-dashoffset: 0; stroke-linejoin: miter; stroke-miterlimit: 4; fill: rgb(0,0,0); fill-rule: nonzero; opacity: 1;" vector-effect="non-scaling-stroke"  transform=" translate(0, 0)" d="M 0 -3.2992 C 1.82116 -3.2992 3.2992 -1.82116 3.2992 0 C 3.2992 1.82116 1.82116 3.2992 0 3.2992 C -1.82116 3.2992 -3.2992 1.82116 -3.2992 0 C -3.2992 -1.82116 -1.82116 -3.2992 0 -3.2992 z" stroke-linecap="round" />
</g>
<g transform="matrix(0.98 0 0 0.98 24.46 10.38)" id="s4_6ElWeW4BOnycfniFnj"  >
<g style="" vector-effect="non-scaling-stroke"   >
		<g transform="matrix(0 1 -1 0 -0.12 8.68)" id="kNbdA-PS1JUSK5s9yjBhA"  >
<path style="stroke: rgb(2,98,223); stroke-width: 3; stroke-dasharray: none; stroke-linecap: butt; stroke-dashoffset: 0; stroke-linejoin: miter; stroke-miterlimit: 4; fill: rgb(255,255,255); fill-opacity: 0; fill-rule: nonzero; opacity: 1;" vector-effect="non-scaling-stroke"  transform=" translate(0, 0)" d="M 12.74123 15.18712 C 12.74123 15.18712 -18.368409999999997 11.89206 -11.841 3.53697 C -5.313579999999999 -4.81812 9.60807 -15.18712 9.60807 -15.18712" stroke-linecap="round" />
</g>
		<g transform="matrix(1 0 0 1 35.53 21.22)" id="VKprpTiXqjdnSLjTUkZhz"  >
<path style="stroke: rgb(2,98,223); stroke-width: 1; stroke-dasharray: none; stroke-linecap: butt; stroke-dashoffset: 0; stroke-linejoin: miter; stroke-miterlimit: 4; fill: rgb(255,255,255); fill-opacity: 0; fill-rule: nonzero; opacity: 1;" vector-effect="non-scaling-stroke"  transform=" translate(0, 0)" d="M 0 0" stroke-linecap="round" />
</g>
		<g transform="matrix(0 0.78 -0.72 0 5.17 5.71)" id="_A4w4_Hi95FTuodflvsT8"  >
<path style="stroke: rgb(2,98,223); stroke-width: 3; stroke-dasharray: none; stroke-linecap: butt; stroke-dashoffset: 0; stroke-linejoin: miter; stroke-miterlimit: 4; fill: rgb(255,255,255); fill-opacity: 0; fill-rule: nonzero; opacity: 1;" vector-effect="non-scaling-stroke"  transform=" translate(0, 0)" d="M 13.0333 13.61414 C 13.0333 13.61414 -21.314510000000002 10.863100000000001 -14.78709 2.508000000000001 C -8.25967 -5.84709 15.61214 -13.61415 15.61214 -13.61415" stroke-linecap="round" />
</g>
</g>
</g>
</svg>