<?xml version="1.0" encoding="UTF-8" standalone="no" ?>
<!DOCTYPE svg PUBLIC "-//W3C//DTD SVG 1.1//EN" "http://www.w3.org/Graphics/SVG/1.1/DTD/svg11.dtd">
<svg xmlns="http://www.w3.org/2000/svg" xmlns:xlink="http://www.w3.org/1999/xlink" version="1.1" width="82" height="35" viewBox="0 0 82 35" xml:space="preserve">
<desc>Created with Fabric.js 4.6.0</desc>
<defs>
</defs>
<g transform="matrix(1 0 0 1 188.76 212.9)" id="zH_ksZalMPnmJoXEWK_N7"  >
<path style="stroke: rgb(0,0,0); stroke-width: 1; stroke-dasharray: none; stroke-linecap: butt; stroke-dashoffset: 0; stroke-linejoin: miter; stroke-miterlimit: 4; fill: rgb(255,255,255); fill-opacity: 0; fill-rule: nonzero; opacity: 1;" vector-effect="non-scaling-stroke"  transform=" translate(0, 0)" d="M 21.81467 -11.77606 L -21.81467 11.77606" stroke-linecap="round" />
</g>
<g transform="matrix(1 0 0 1 19.19 17.1)" id="DvpZS2R2FZgVpQMtKRPW_"  >
<path style="stroke: rgb(2,98,223); stroke-width: 3; stroke-dasharray: none; stroke-linecap: butt; stroke-dashoffset: 0; stroke-linejoin: miter; stroke-miterlimit: 4; fill: rgb(255,255,255); fill-opacity: 0; fill-rule: nonzero; opacity: 1;" vector-effect="non-scaling-stroke"  transform=" translate(0, 0)" d="M 11.32579 15.18712 C 11.32579 15.18712 -16.872639999999997 8.398610000000001 -10.345229999999999 0.04352000000000089 C -3.817809999999999 -8.31157 8.19263 -15.187119999999998 8.19263 -15.187119999999998" stroke-linecap="round" />
</g>
<g transform="matrix(1 0 0 1 114.03 190.97)" id="YDbSw3XY18zdDJki8lYg4"  >
<path style="stroke: rgb(2,98,223); stroke-width: 1; stroke-dasharray: none; stroke-linecap: butt; stroke-dashoffset: 0; stroke-linejoin: miter; stroke-miterlimit: 4; fill: rgb(255,255,255); fill-opacity: 0; fill-rule: nonzero; opacity: 1;" vector-effect="non-scaling-stroke"  transform=" translate(0, 0)" d="M 11.32579 15.18712 C 11.32579 15.18712 -16.872639999999997 8.398610000000001 -10.345229999999999 0.04352000000000089 C -3.817809999999999 -8.31157 8.19263 -15.187119999999998 8.19263 -15.187119999999998" stroke-linecap="round" />
</g>
<g transform="matrix(0.78 0 0 0.72 12.71 14.96)" id="m_aFHTRq1AF8P8OcYe3BN"  >
<path style="stroke: rgb(2,98,223); stroke-width: 3; stroke-dasharray: none; stroke-linecap: butt; stroke-dashoffset: 0; stroke-linejoin: miter; stroke-miterlimit: 4; fill: rgb(255,255,255); fill-opacity: 0; fill-rule: nonzero; opacity: 1;" vector-effect="non-scaling-stroke"  transform=" translate(0, 0)" d="M 14.32272 15.01101 C 14.32272 15.01101 -20.025090000000002 12.259970000000001 -13.49767 3.9048700000000007 C -6.970249999999999 -4.45022 14.32272 -15.01102 14.32272 -15.01102" stroke-linecap="round" />
</g>
<g transform="matrix(-1 0 0 1 62.32 17.82)" id="l_26Tz9SkvshQsT2GOME9"  >
<path style="stroke: rgb(2,98,223); stroke-width: 3; stroke-dasharray: none; stroke-linecap: butt; stroke-dashoffset: 0; stroke-linejoin: miter; stroke-miterlimit: 4; fill: rgb(255,255,255); fill-opacity: 0; fill-rule: nonzero; opacity: 1;" vector-effect="non-scaling-stroke"  transform=" translate(0, 0)" d="M 11.32579 15.18712 C 11.32579 15.18712 -16.872639999999997 8.398610000000001 -10.345229999999999 0.04352000000000089 C -3.817809999999999 -8.31157 8.19263 -15.187119999999998 8.19263 -15.187119999999998" stroke-linecap="round" />
</g>
<g transform="matrix(-0.78 0 0 0.72 68.8 15.68)" id="o6-lmmkkyjwQuvOzABszF"  >
<path style="stroke: rgb(2,98,223); stroke-width: 3; stroke-dasharray: none; stroke-linecap: butt; stroke-dashoffset: 0; stroke-linejoin: miter; stroke-miterlimit: 4; fill: rgb(255,255,255); fill-opacity: 0; fill-rule: nonzero; opacity: 1;" vector-effect="non-scaling-stroke"  transform=" translate(0, 0)" d="M 14.32272 15.01101 C 14.32272 15.01101 -20.025090000000002 12.259970000000001 -13.49767 3.9048700000000007 C -6.970249999999999 -4.45022 14.32272 -15.01102 14.32272 -15.01102" stroke-linecap="round" />
</g>
<g transform="matrix(1 0 0 -1 46.96 15.68)" id="V7R20_1gtlbDo85s9WR0i"  >
<path style="stroke: rgb(2,98,223); stroke-width: 2; stroke-dasharray: none; stroke-linecap: butt; stroke-dashoffset: 0; stroke-linejoin: miter; stroke-miterlimit: 4; fill: rgb(255,255,255); fill-opacity: 0; fill-rule: nonzero; opacity: 1;" vector-effect="non-scaling-stroke"  transform=" translate(0, 0)" d="M -7.42918 3.77885 C -7.61233 -4.82921 8.13859 5.6103499999999995 7.4059800000000005 -5.012359999999999 C 6.673380000000001 -15.635069999999999 -2.8504300000000002 5.244050000000001 -2.8504300000000002 5.244050000000001 C -2.8504300000000002 5.244050000000001 -7.24603 12.38691 -7.429180000000001 3.778850000000001 z" stroke-linecap="round" />
</g>
<g transform="matrix(-1 0 0 -1 137.94 188.32)" id="U5qpnuEFkaSmwFhr0zo9o"  >
<path style="stroke: rgb(2,98,223); stroke-width: 1; stroke-dasharray: none; stroke-linecap: butt; stroke-dashoffset: 0; stroke-linejoin: miter; stroke-miterlimit: 4; fill: rgb(255,255,255); fill-opacity: 0; fill-rule: nonzero; opacity: 1;" vector-effect="non-scaling-stroke"  transform=" translate(0, 0)" d="M -7.42918 3.77885 C -7.61233 -4.82921 8.13859 5.6103499999999995 7.4059800000000005 -5.012359999999999 C 6.673380000000001 -15.635069999999999 -2.8504300000000002 5.244050000000001 -2.8504300000000002 5.244050000000001 C -2.8504300000000002 5.244050000000001 -7.24603 12.38691 -7.429180000000001 3.778850000000001 z" stroke-linecap="round" />
</g>
<g transform="matrix(1 0 0 1 41.06 15.91)" id="ktzHyRLnuWw_T1sHI9Mvh"  >
<path style="stroke: rgb(2,98,223); stroke-width: 2; stroke-dasharray: none; stroke-linecap: butt; stroke-dashoffset: 0; stroke-linejoin: miter; stroke-miterlimit: 4; fill: rgb(255,255,255); fill-opacity: 0; fill-rule: nonzero; opacity: 1;" vector-effect="non-scaling-stroke"  transform=" translate(0, 0)" d="M -7.42918 3.77885 C -7.61233 -4.82921 8.13859 5.6103499999999995 7.4059800000000005 -5.012359999999999 C 6.673380000000001 -15.635069999999999 -2.8504300000000002 5.244050000000001 -2.8504300000000002 5.244050000000001 C -2.8504300000000002 5.244050000000001 -7.24603 12.38691 -7.429180000000001 3.778850000000001 z" stroke-linecap="round" />
</g>
<g transform="matrix(1 0 0 -1 42.04 7.46)" id="ff2KO_wUpU_xxMolOWHrc"  >
<path style="stroke: rgb(2,98,223); stroke-width: 1; stroke-dasharray: none; stroke-linecap: butt; stroke-dashoffset: 0; stroke-linejoin: miter; stroke-miterlimit: 4; fill: rgb(255,255,255); fill-opacity: 0; fill-rule: nonzero; opacity: 1;" vector-effect="non-scaling-stroke"  transform=" translate(0, 0)" d="M 0 0" stroke-linecap="round" />
</g>
</svg>