<?xml version="1.0" encoding="UTF-8" standalone="no" ?>
<!DOCTYPE svg PUBLIC "-//W3C//DTD SVG 1.1//EN" "http://www.w3.org/Graphics/SVG/1.1/DTD/svg11.dtd">
<svg xmlns="http://www.w3.org/2000/svg" xmlns:xlink="http://www.w3.org/1999/xlink" version="1.1" width="82" height="35" viewBox="0 0 82 35" xml:space="preserve">
<desc>Created with Fabric.js 4.6.0</desc>
<defs>
</defs>
<g transform="matrix(1 0 0 1 188.76 212.9)" id="zH_ksZalMPnmJoXEWK_N7"  >
<path style="stroke: rgb(0,0,0); stroke-width: 1; stroke-dasharray: none; stroke-linecap: butt; stroke-dashoffset: 0; stroke-linejoin: miter; stroke-miterlimit: 4; fill: rgb(255,255,255); fill-opacity: 0; fill-rule: nonzero; opacity: 1;" vector-effect="non-scaling-stroke"  transform=" translate(0, 0)" d="M 21.81467 -11.77606 L -21.81467 11.77606" stroke-linecap="round" />
</g>
<g transform="matrix(1 0 0 1 18.11 21.16)" id="DvpZS2R2FZgVpQMtKRPW_"  >
<path style="stroke: rgb(2,98,223); stroke-width: 3; stroke-dasharray: none; stroke-linecap: butt; stroke-dashoffset: 0; stroke-linejoin: miter; stroke-miterlimit: 4; fill: rgb(255,255,255); fill-opacity: 0; fill-rule: nonzero; opacity: 1;" vector-effect="non-scaling-stroke"  transform=" translate(0, 0)" d="M 11.32579 15.18712 C 11.32579 15.18712 -16.872639999999997 8.398610000000001 -10.345229999999999 0.04352000000000089 C -3.817809999999999 -8.31157 8.19263 -15.187119999999998 8.19263 -15.187119999999998" stroke-linecap="round" />
</g>
<g transform="matrix(1 0 0 1 114.03 190.97)" id="YDbSw3XY18zdDJki8lYg4"  >
<path style="stroke: rgb(2,98,223); stroke-width: 1; stroke-dasharray: none; stroke-linecap: butt; stroke-dashoffset: 0; stroke-linejoin: miter; stroke-miterlimit: 4; fill: rgb(255,255,255); fill-opacity: 0; fill-rule: nonzero; opacity: 1;" vector-effect="non-scaling-stroke"  transform=" translate(0, 0)" d="M 11.32579 15.18712 C 11.32579 15.18712 -16.872639999999997 8.398610000000001 -10.345229999999999 0.04352000000000089 C -3.817809999999999 -8.31157 8.19263 -15.187119999999998 8.19263 -15.187119999999998" stroke-linecap="round" />
</g>
<g transform="matrix(0.78 0 0 0.72 13.73 15.87)" id="m_aFHTRq1AF8P8OcYe3BN"  >
<path style="stroke: rgb(2,98,223); stroke-width: 3; stroke-dasharray: none; stroke-linecap: butt; stroke-dashoffset: 0; stroke-linejoin: miter; stroke-miterlimit: 4; fill: rgb(255,255,255); fill-opacity: 0; fill-rule: nonzero; opacity: 1;" vector-effect="non-scaling-stroke"  transform=" translate(0, 0)" d="M 13.0333 13.61414 C 13.0333 13.61414 -21.314510000000002 10.863100000000001 -14.78709 2.508000000000001 C -8.25967 -5.84709 15.61214 -13.61415 15.61214 -13.61415" stroke-linecap="round" />
</g>
<g transform="matrix(-1 0 0 1 63.49 21.56)" id="TGM-MilCCxBlFmCx2uRvy"  >
<path style="stroke: rgb(2,98,223); stroke-width: 3; stroke-dasharray: none; stroke-linecap: butt; stroke-dashoffset: 0; stroke-linejoin: miter; stroke-miterlimit: 4; fill: rgb(255,255,255); fill-opacity: 0; fill-rule: nonzero; opacity: 1;" vector-effect="non-scaling-stroke"  transform=" translate(0, 0)" d="M 11.32579 15.18712 C 11.32579 15.18712 -16.872639999999997 8.398610000000001 -10.345229999999999 0.04352000000000089 C -3.817809999999999 -8.31157 8.19263 -15.187119999999998 8.19263 -15.187119999999998" stroke-linecap="round" />
</g>
<g transform="matrix(-0.78 0 0 0.72 67.87 16.27)" id="j39keSnkM2_tgOgqzh5L8"  >
<path style="stroke: rgb(2,98,223); stroke-width: 3; stroke-dasharray: none; stroke-linecap: butt; stroke-dashoffset: 0; stroke-linejoin: miter; stroke-miterlimit: 4; fill: rgb(255,255,255); fill-opacity: 0; fill-rule: nonzero; opacity: 1;" vector-effect="non-scaling-stroke"  transform=" translate(0, 0)" d="M 13.0333 13.61414 C 13.0333 13.61414 -21.314510000000002 10.863100000000001 -14.78709 2.508000000000001 C -8.25967 -5.84709 15.61214 -13.61415 15.61214 -13.61415" stroke-linecap="round" />
</g>
<g transform="matrix(-1 0 0 -1 137.94 188.32)" id="U5qpnuEFkaSmwFhr0zo9o"  >
<path style="stroke: rgb(2,98,223); stroke-width: 1; stroke-dasharray: none; stroke-linecap: butt; stroke-dashoffset: 0; stroke-linejoin: miter; stroke-miterlimit: 4; fill: rgb(255,255,255); fill-opacity: 0; fill-rule: nonzero; opacity: 1;" vector-effect="non-scaling-stroke"  transform=" translate(0, 0)" d="M -7.42918 3.77885 C -7.61233 -4.82921 8.13859 5.6103499999999995 7.4059800000000005 -5.012359999999999 C 6.673380000000001 -15.635069999999999 -2.8504300000000002 5.244050000000001 -2.8504300000000002 5.244050000000001 C -2.8504300000000002 5.244050000000001 -7.24603 12.38691 -7.429180000000001 3.778850000000001 z" stroke-linecap="round" />
</g>
<g transform="matrix(1 0 0 -1 42.04 7.46)" id="ff2KO_wUpU_xxMolOWHrc"  >
<path style="stroke: rgb(2,98,223); stroke-width: 1; stroke-dasharray: none; stroke-linecap: butt; stroke-dashoffset: 0; stroke-linejoin: miter; stroke-miterlimit: 4; fill: rgb(255,255,255); fill-opacity: 0; fill-rule: nonzero; opacity: 1;" vector-effect="non-scaling-stroke"  transform=" translate(0, 0)" d="M 0 0" stroke-linecap="round" />
</g>
<g transform="matrix(1 0 0 1 34.51 23.8)" id="h79Ywlxt5p8QQjywlVbcQ"  >
<path style="stroke: rgb(2,98,223); stroke-width: 1; stroke-dasharray: none; stroke-linecap: butt; stroke-dashoffset: 0; stroke-linejoin: miter; stroke-miterlimit: 4; fill: rgb(255,255,255); fill-opacity: 0; fill-rule: nonzero; opacity: 1;" vector-effect="non-scaling-stroke"  transform=" translate(0, 0)" d="M 0 0" stroke-linecap="round" />
</g>
<g transform="matrix(1 0 0 1 41.24 18.53)" id="YVUY9a3W_z12oZfTDGhfv"  >
<path style="stroke: rgb(2,98,223); stroke-width: 1; stroke-dasharray: none; stroke-linecap: butt; stroke-dashoffset: 0; stroke-linejoin: miter; stroke-miterlimit: 4; fill: rgb(255,255,255); fill-opacity: 0; fill-rule: nonzero; opacity: 1;" vector-effect="non-scaling-stroke"  transform=" translate(0, 0)" d="M -5.72779 4.7672 C -1.4174499999999997 2.08521 1.80368 -6.705979999999999 1.80368 -6.705979999999999 C 1.80368 -6.705979999999999 0.99827 6.895550000000001 4.82968 6.7039800000000005 C 8.6611 6.512410000000001 -0.9174500000000005 -4.31135 -2.3542300000000003 -3.736629999999999" stroke-linecap="round" />
</g>
</svg>