<?xml version="1.0" encoding="UTF-8" standalone="no" ?>
<!DOCTYPE svg PUBLIC "-//W3C//DTD SVG 1.1//EN" "http://www.w3.org/Graphics/SVG/1.1/DTD/svg11.dtd">
<svg xmlns="http://www.w3.org/2000/svg" xmlns:xlink="http://www.w3.org/1999/xlink" version="1.1" width="82" height="34" viewBox="0 0 82 34" xml:space="preserve">
<desc>Created with Fabric.js 4.6.0</desc>
<defs>
</defs>
<g transform="matrix(1 0 0 1 188.76 212.9)" id="zH_ksZalMPnmJoXEWK_N7"  >
<path style="stroke: rgb(0,0,0); stroke-width: 1; stroke-dasharray: none; stroke-linecap: butt; stroke-dashoffset: 0; stroke-linejoin: miter; stroke-miterlimit: 4; fill: rgb(255,255,255); fill-opacity: 0; fill-rule: nonzero; opacity: 1;" vector-effect="non-scaling-stroke"  transform=" translate(0, 0)" d="M 21.81467 -11.77606 L -21.81467 11.77606" stroke-linecap="round" />
</g>
<g transform="matrix(1 0 0 1 18.1 16.73)" id="DvpZS2R2FZgVpQMtKRPW_"  >
<path style="stroke: rgb(2,98,223); stroke-width: 3; stroke-dasharray: none; stroke-linecap: butt; stroke-dashoffset: 0; stroke-linejoin: miter; stroke-miterlimit: 4; fill: rgb(255,255,255); fill-opacity: 0; fill-rule: nonzero; opacity: 1;" vector-effect="non-scaling-stroke"  transform=" translate(0, 0)" d="M 11.32579 15.18712 C 11.32579 15.18712 -16.872639999999997 8.398610000000001 -10.345229999999999 0.04352000000000089 C -3.817809999999999 -8.31157 8.19263 -15.187119999999998 8.19263 -15.187119999999998" stroke-linecap="round" />
</g>
<g transform="matrix(1 0 0 1 114.03 190.97)" id="YDbSw3XY18zdDJki8lYg4"  >
<path style="stroke: rgb(2,98,223); stroke-width: 1; stroke-dasharray: none; stroke-linecap: butt; stroke-dashoffset: 0; stroke-linejoin: miter; stroke-miterlimit: 4; fill: rgb(255,255,255); fill-opacity: 0; fill-rule: nonzero; opacity: 1;" vector-effect="non-scaling-stroke"  transform=" translate(0, 0)" d="M 11.32579 15.18712 C 11.32579 15.18712 -16.872639999999997 8.398610000000001 -10.345229999999999 0.04352000000000089 C -3.817809999999999 -8.31157 8.19263 -15.187119999999998 8.19263 -15.187119999999998" stroke-linecap="round" />
</g>
<g transform="matrix(0.78 0 0 0.72 13.72 11.44)" id="m_aFHTRq1AF8P8OcYe3BN"  >
<path style="stroke: rgb(2,98,223); stroke-width: 3; stroke-dasharray: none; stroke-linecap: butt; stroke-dashoffset: 0; stroke-linejoin: miter; stroke-miterlimit: 4; fill: rgb(255,255,255); fill-opacity: 0; fill-rule: nonzero; opacity: 1;" vector-effect="non-scaling-stroke"  transform=" translate(0, 0)" d="M 13.0333 13.61414 C 13.0333 13.61414 -21.314510000000002 10.863100000000001 -14.78709 2.508000000000001 C -8.25967 -5.84709 15.61214 -13.61415 15.61214 -13.61415" stroke-linecap="round" />
</g>
<g transform="matrix(-1 0 0 1 63.48 17.13)" id="TGM-MilCCxBlFmCx2uRvy"  >
<path style="stroke: rgb(2,98,223); stroke-width: 3; stroke-dasharray: none; stroke-linecap: butt; stroke-dashoffset: 0; stroke-linejoin: miter; stroke-miterlimit: 4; fill: rgb(255,255,255); fill-opacity: 0; fill-rule: nonzero; opacity: 1;" vector-effect="non-scaling-stroke"  transform=" translate(0, 0)" d="M 11.32579 15.18712 C 11.32579 15.18712 -16.872639999999997 8.398610000000001 -10.345229999999999 0.04352000000000089 C -3.817809999999999 -8.31157 8.19263 -15.187119999999998 8.19263 -15.187119999999998" stroke-linecap="round" />
</g>
<g transform="matrix(-0.78 0 0 0.72 67.86 11.84)" id="j39keSnkM2_tgOgqzh5L8"  >
<path style="stroke: rgb(2,98,223); stroke-width: 3; stroke-dasharray: none; stroke-linecap: butt; stroke-dashoffset: 0; stroke-linejoin: miter; stroke-miterlimit: 4; fill: rgb(255,255,255); fill-opacity: 0; fill-rule: nonzero; opacity: 1;" vector-effect="non-scaling-stroke"  transform=" translate(0, 0)" d="M 13.0333 13.61414 C 13.0333 13.61414 -21.314510000000002 10.863100000000001 -14.78709 2.508000000000001 C -8.25967 -5.84709 15.61214 -13.61415 15.61214 -13.61415" stroke-linecap="round" />
</g>
<g transform="matrix(-1 0 0 -1 137.94 188.32)" id="U5qpnuEFkaSmwFhr0zo9o"  >
<path style="stroke: rgb(2,98,223); stroke-width: 1; stroke-dasharray: none; stroke-linecap: butt; stroke-dashoffset: 0; stroke-linejoin: miter; stroke-miterlimit: 4; fill: rgb(255,255,255); fill-opacity: 0; fill-rule: nonzero; opacity: 1;" vector-effect="non-scaling-stroke"  transform=" translate(0, 0)" d="M -7.42918 3.77885 C -7.61233 -4.82921 8.13859 5.6103499999999995 7.4059800000000005 -5.012359999999999 C 6.673380000000001 -15.635069999999999 -2.8504300000000002 5.244050000000001 -2.8504300000000002 5.244050000000001 C -2.8504300000000002 5.244050000000001 -7.24603 12.38691 -7.429180000000001 3.778850000000001 z" stroke-linecap="round" />
</g>
<g transform="matrix(1 0 0 -1 44.36 5.1)" id="ff2KO_wUpU_xxMolOWHrc"  >
<path style="stroke: rgb(2,98,223); stroke-width: 1; stroke-dasharray: none; stroke-linecap: butt; stroke-dashoffset: 0; stroke-linejoin: miter; stroke-miterlimit: 4; fill: rgb(255,255,255); fill-opacity: 0; fill-rule: nonzero; opacity: 1;" vector-effect="non-scaling-stroke"  transform=" translate(0, 0)" d="M 0 0" stroke-linecap="round" />
</g>
<g transform="matrix(1 0 0 1 34.51 19.38)" id="h79Ywlxt5p8QQjywlVbcQ"  >
<path style="stroke: rgb(2,98,223); stroke-width: 1; stroke-dasharray: none; stroke-linecap: butt; stroke-dashoffset: 0; stroke-linejoin: miter; stroke-miterlimit: 4; fill: rgb(255,255,255); fill-opacity: 0; fill-rule: nonzero; opacity: 1;" vector-effect="non-scaling-stroke"  transform=" translate(0, 0)" d="M 0 0" stroke-linecap="round" />
</g>
<g transform="matrix(1 0 0 1 41 16.14)" id="OMDXwYP0h5Tb5sSEVhBso"  >
<path style="stroke: rgb(2,98,223); stroke-width: 0; stroke-dasharray: none; stroke-linecap: butt; stroke-dashoffset: 0; stroke-linejoin: miter; stroke-miterlimit: 4; fill: rgb(2,98,223); fill-rule: nonzero; opacity: 1;" vector-effect="non-scaling-stroke"  transform=" translate(-4.3, -4.3)" d="M 4.299226139294927 0 C 6.6723989681857265 0 8.598452278589853 1.9260533104041269 8.598452278589853 4.299226139294927 C 8.598452278589853 6.6723989681857265 6.6723989681857265 8.598452278589853 4.299226139294927 8.598452278589853 C 1.9260533104041269 8.598452278589853 0 6.6723989681857265 0 4.299226139294927 C 0 1.9260533104041269 1.9260533104041269 0 4.299226139294927 0 Z" stroke-linecap="round" />
</g>
</svg>