<?xml version="1.0" encoding="UTF-8" standalone="no" ?>
<!DOCTYPE svg PUBLIC "-//W3C//DTD SVG 1.1//EN" "http://www.w3.org/Graphics/SVG/1.1/DTD/svg11.dtd">
<svg xmlns="http://www.w3.org/2000/svg" xmlns:xlink="http://www.w3.org/1999/xlink" version="1.1" width="47" height="58" viewBox="0 0 47 58" xml:space="preserve">
<desc>Created with Fabric.js 4.6.0</desc>
<defs>
</defs>
<g transform="matrix(0 1 -1 0 23.38 37.68)" id="sQXlu6we2PKcl71-Liq46"  >
<path style="stroke: rgb(2,98,223); stroke-width: 3; stroke-dasharray: none; stroke-linecap: butt; stroke-dashoffset: 0; stroke-linejoin: miter; stroke-miterlimit: 4; fill: rgb(255,255,255); fill-opacity: 0; fill-rule: nonzero; opacity: 1;" vector-effect="non-scaling-stroke"  transform=" translate(0, 0)" d="M 12.74123 15.18712 C 12.74123 15.18712 -18.368409999999997 11.89206 -11.841 3.53697 C -5.313579999999999 -4.81812 9.60807 -15.18712 9.60807 -15.18712" stroke-linecap="round" />
</g>
<g transform="matrix(1 0 0 1 59.03 50.22)" id="J1PNQEoGh_-rYtTXj1AVL"  >
<path style="stroke: rgb(2,98,223); stroke-width: 1; stroke-dasharray: none; stroke-linecap: butt; stroke-dashoffset: 0; stroke-linejoin: miter; stroke-miterlimit: 4; fill: rgb(255,255,255); fill-opacity: 0; fill-rule: nonzero; opacity: 1;" vector-effect="non-scaling-stroke"  transform=" translate(0, 0)" d="M 0 0" stroke-linecap="round" />
</g>
<g transform="matrix(1 0 0 1.12 23.38 28.9)" id="1enmWF3q8ENN1JL9Ec1X2"  >
<path style="stroke: rgb(47,47,47); stroke-width: 1; stroke-dasharray: none; stroke-linecap: butt; stroke-dashoffset: 0; stroke-linejoin: miter; stroke-miterlimit: 4; fill: rgb(255,255,255); fill-opacity: 0; fill-rule: nonzero; opacity: 1;" vector-effect="non-scaling-stroke"  transform=" translate(0, 0)" d="M -22.80702 3.96162 L 22.80702 3.96162 C 22.80702 3.96162 -0.8868899999999975 -5.24891 -0.8868899999999975 -22.35417 C -0.8868899999999975 -39.45943 -0.8868899999999975 25.233549999999997 -0.8868899999999975 25.233549999999997" stroke-linecap="round" />
</g>
<g transform="matrix(0 0.78 -0.72 0 28.67 34.71)" id="swpTvbCe01SE9ghXTRfAy"  >
<path style="stroke: rgb(2,98,223); stroke-width: 3; stroke-dasharray: none; stroke-linecap: butt; stroke-dashoffset: 0; stroke-linejoin: miter; stroke-miterlimit: 4; fill: rgb(255,255,255); fill-opacity: 0; fill-rule: nonzero; opacity: 1;" vector-effect="non-scaling-stroke"  transform=" translate(0, 0)" d="M 13.0333 13.61414 C 13.0333 13.61414 -21.314510000000002 10.863100000000001 -14.78709 2.508000000000001 C -8.25967 -5.84709 15.61214 -13.61415 15.61214 -13.61415" stroke-linecap="round" />
</g>
</svg>