<svg id="visual" viewBox="0 0 900 600" width="900" height="600" xmlns="http://www.w3.org/2000/svg" xmlns:xlink="http://www.w3.org/1999/xlink" version="1.1"><rect x="0" y="0" width="900" height="600" fill="#ffffff"></rect><defs><linearGradient id="grad1_0" x1="33.3%" y1="0%" x2="100%" y2="100%"><stop offset="20%" stop-color="#3c70fa" stop-opacity="1"></stop><stop offset="80%" stop-color="#3c70fa" stop-opacity="1"></stop></linearGradient></defs><defs><linearGradient id="grad1_1" x1="33.3%" y1="0%" x2="100%" y2="100%"><stop offset="20%" stop-color="#3c70fa" stop-opacity="1"></stop><stop offset="80%" stop-color="#778afc" stop-opacity="1"></stop></linearGradient></defs><defs><linearGradient id="grad1_2" x1="33.3%" y1="0%" x2="100%" y2="100%"><stop offset="20%" stop-color="#9fa6fe" stop-opacity="1"></stop><stop offset="80%" stop-color="#778afc" stop-opacity="1"></stop></linearGradient></defs><defs><linearGradient id="grad1_3" x1="33.3%" y1="0%" x2="100%" y2="100%"><stop offset="20%" stop-color="#9fa6fe" stop-opacity="1"></stop><stop offset="80%" stop-color="#c2c3ff" stop-opacity="1"></stop></linearGradient></defs><defs><linearGradient id="grad1_4" x1="33.3%" y1="0%" x2="100%" y2="100%"><stop offset="20%" stop-color="#e1e0ff" stop-opacity="1"></stop><stop offset="80%" stop-color="#c2c3ff" stop-opacity="1"></stop></linearGradient></defs><defs><linearGradient id="grad1_5" x1="33.3%" y1="0%" x2="100%" y2="100%"><stop offset="20%" stop-color="#e1e0ff" stop-opacity="1"></stop><stop offset="80%" stop-color="#ffffff" stop-opacity="1"></stop></linearGradient></defs><defs><linearGradient id="grad2_0" x1="0%" y1="0%" x2="66.7%" y2="100%"><stop offset="20%" stop-color="#3c70fa" stop-opacity="1"></stop><stop offset="80%" stop-color="#3c70fa" stop-opacity="1"></stop></linearGradient></defs><defs><linearGradient id="grad2_1" x1="0%" y1="0%" x2="66.7%" y2="100%"><stop offset="20%" stop-color="#778afc" stop-opacity="1"></stop><stop offset="80%" stop-color="#3c70fa" stop-opacity="1"></stop></linearGradient></defs><defs><linearGradient id="grad2_2" x1="0%" y1="0%" x2="66.7%" y2="100%"><stop offset="20%" stop-color="#778afc" stop-opacity="1"></stop><stop offset="80%" stop-color="#9fa6fe" stop-opacity="1"></stop></linearGradient></defs><defs><linearGradient id="grad2_3" x1="0%" y1="0%" x2="66.7%" y2="100%"><stop offset="20%" stop-color="#c2c3ff" stop-opacity="1"></stop><stop offset="80%" stop-color="#9fa6fe" stop-opacity="1"></stop></linearGradient></defs><defs><linearGradient id="grad2_4" x1="0%" y1="0%" x2="66.7%" y2="100%"><stop offset="20%" stop-color="#c2c3ff" stop-opacity="1"></stop><stop offset="80%" stop-color="#e1e0ff" stop-opacity="1"></stop></linearGradient></defs><defs><linearGradient id="grad2_5" x1="0%" y1="0%" x2="66.7%" y2="100%"><stop offset="20%" stop-color="#ffffff" stop-opacity="1"></stop><stop offset="80%" stop-color="#e1e0ff" stop-opacity="1"></stop></linearGradient></defs><g transform="translate(900, 0)"><path d="M0 216.3C-26.4 211.3 -52.9 206.3 -81.9 197.7C-110.9 189.1 -142.5 176.8 -153 153C-163.4 129.1 -152.8 93.6 -159.8 66.2C-166.9 38.8 -191.6 19.4 -216.3 0L0 0Z" fill="#f0f0ff"></path><path d="M0 180.3C-22 176.1 -44.1 171.9 -68.2 164.8C-92.4 157.6 -118.8 147.4 -127.5 127.5C-136.2 107.6 -127.3 78 -133.2 55.2C-139.1 32.3 -159.7 16.2 -180.3 0L0 0Z" fill="#d2d2ff"></path><path d="M0 144.2C-17.6 140.9 -35.3 137.6 -54.6 131.8C-73.9 126.1 -95 117.9 -102 102C-109 86.1 -101.9 62.4 -106.6 44.1C-111.2 25.8 -127.7 12.9 -144.2 0L0 0Z" fill="#b1b4fe"></path><path d="M0 108.2C-13.2 105.7 -26.4 103.2 -40.9 98.9C-55.5 94.5 -71.3 88.4 -76.5 76.5C-81.7 64.6 -76.4 46.8 -79.9 33.1C-83.4 19.4 -95.8 9.7 -108.2 0L0 0Z" fill="#8c98fd"></path><path d="M0 72.1C-8.8 70.4 -17.6 68.8 -27.3 65.9C-37 63 -47.5 58.9 -51 51C-54.5 43 -50.9 31.2 -53.3 22.1C-55.6 12.9 -63.9 6.5 -72.1 0L0 0Z" fill="#5e7dfb"></path><path d="M0 36.1C-4.4 35.2 -8.8 34.4 -13.6 33C-18.5 31.5 -23.8 29.5 -25.5 25.5C-27.2 21.5 -25.5 15.6 -26.6 11C-27.8 6.5 -31.9 3.2 -36.1 0L0 0Z" fill="#3c70fa"></path></g><g transform="translate(0, 600)"><path d="M0 -216.3C26.1 -202 52.2 -187.8 71.2 -171.8C90.2 -155.9 102 -138.4 125.2 -125.2C148.3 -111.9 182.8 -102.9 199.9 -82.8C216.9 -62.6 216.6 -31.3 216.3 0L0 0Z" fill="#f0f0ff"></path><path d="M0 -180.3C21.8 -168.4 43.5 -156.5 59.3 -143.2C75.1 -129.9 85 -115.3 104.3 -104.3C123.6 -93.3 152.3 -85.8 166.6 -69C180.8 -52.2 180.5 -26.1 180.3 0L0 0Z" fill="#d2d2ff"></path><path d="M0 -144.2C17.4 -134.7 34.8 -125.2 47.5 -114.6C60.1 -104 68 -92.3 83.4 -83.4C98.9 -74.6 121.9 -68.6 133.2 -55.2C144.6 -41.8 144.4 -20.9 144.2 0L0 0Z" fill="#b1b4fe"></path><path d="M0 -108.2C13.1 -101 26.1 -93.9 35.6 -85.9C45.1 -78 51 -69.2 62.6 -62.6C74.2 -56 91.4 -51.5 99.9 -41.4C108.5 -31.3 108.3 -15.7 108.2 0L0 0Z" fill="#8c98fd"></path><path d="M0 -72.1C8.7 -67.3 17.4 -62.6 23.7 -57.3C30.1 -52 34 -46.1 41.7 -41.7C49.4 -37.3 60.9 -34.3 66.6 -27.6C72.3 -20.9 72.2 -10.4 72.1 0L0 0Z" fill="#5e7dfb"></path><path d="M0 -36.1C4.4 -33.7 8.7 -31.3 11.9 -28.6C15 -26 17 -23.1 20.9 -20.9C24.7 -18.7 30.5 -17.2 33.3 -13.8C36.2 -10.4 36.1 -5.2 36.1 0L0 0Z" fill="#3c70fa"></path></g></svg>