<svg id="visual" viewBox="0 0 450 900" width="450" height="900" xmlns="http://www.w3.org/2000/svg" xmlns:xlink="http://www.w3.org/1999/xlink" version="1.1"><rect x="0" y="0" width="450" height="900" fill="#ffffff"></rect><defs><linearGradient id="grad1_0" x1="0%" y1="0%" x2="100%" y2="100%"><stop offset="30%" stop-color="#3c70fa" stop-opacity="1"></stop><stop offset="70%" stop-color="#3c70fa" stop-opacity="1"></stop></linearGradient></defs><defs><linearGradient id="grad1_1" x1="0%" y1="0%" x2="100%" y2="100%"><stop offset="30%" stop-color="#3c70fa" stop-opacity="1"></stop><stop offset="70%" stop-color="#778afc" stop-opacity="1"></stop></linearGradient></defs><defs><linearGradient id="grad1_2" x1="0%" y1="0%" x2="100%" y2="100%"><stop offset="30%" stop-color="#9fa6fe" stop-opacity="1"></stop><stop offset="70%" stop-color="#778afc" stop-opacity="1"></stop></linearGradient></defs><defs><linearGradient id="grad1_3" x1="0%" y1="0%" x2="100%" y2="100%"><stop offset="30%" stop-color="#9fa6fe" stop-opacity="1"></stop><stop offset="70%" stop-color="#c2c3ff" stop-opacity="1"></stop></linearGradient></defs><defs><linearGradient id="grad1_4" x1="0%" y1="0%" x2="100%" y2="100%"><stop offset="30%" stop-color="#e1e0ff" stop-opacity="1"></stop><stop offset="70%" stop-color="#c2c3ff" stop-opacity="1"></stop></linearGradient></defs><defs><linearGradient id="grad1_5" x1="0%" y1="0%" x2="100%" y2="100%"><stop offset="30%" stop-color="#e1e0ff" stop-opacity="1"></stop><stop offset="70%" stop-color="#ffffff" stop-opacity="1"></stop></linearGradient></defs><defs><linearGradient id="grad2_0" x1="0%" y1="0%" x2="100%" y2="100%"><stop offset="30%" stop-color="#3c70fa" stop-opacity="1"></stop><stop offset="70%" stop-color="#3c70fa" stop-opacity="1"></stop></linearGradient></defs><defs><linearGradient id="grad2_1" x1="0%" y1="0%" x2="100%" y2="100%"><stop offset="30%" stop-color="#778afc" stop-opacity="1"></stop><stop offset="70%" stop-color="#3c70fa" stop-opacity="1"></stop></linearGradient></defs><defs><linearGradient id="grad2_2" x1="0%" y1="0%" x2="100%" y2="100%"><stop offset="30%" stop-color="#778afc" stop-opacity="1"></stop><stop offset="70%" stop-color="#9fa6fe" stop-opacity="1"></stop></linearGradient></defs><defs><linearGradient id="grad2_3" x1="0%" y1="0%" x2="100%" y2="100%"><stop offset="30%" stop-color="#c2c3ff" stop-opacity="1"></stop><stop offset="70%" stop-color="#9fa6fe" stop-opacity="1"></stop></linearGradient></defs><defs><linearGradient id="grad2_4" x1="0%" y1="0%" x2="100%" y2="100%"><stop offset="30%" stop-color="#c2c3ff" stop-opacity="1"></stop><stop offset="70%" stop-color="#e1e0ff" stop-opacity="1"></stop></linearGradient></defs><defs><linearGradient id="grad2_5" x1="0%" y1="0%" x2="100%" y2="100%"><stop offset="30%" stop-color="#ffffff" stop-opacity="1"></stop><stop offset="70%" stop-color="#e1e0ff" stop-opacity="1"></stop></linearGradient></defs><g transform="translate(450, 0)"><path d="M0 202.5C-11.5 179.9 -23 157.3 -42.2 157.4C-61.4 157.6 -88.4 180.6 -101.2 175.4C-114.1 170.2 -112.9 136.7 -117.4 117.4C-121.8 98 -132 92.7 -146.4 84.5C-160.7 76.3 -179.3 65.3 -189.3 50.7C-199.4 36.2 -200.9 18.1 -202.5 0L0 0Z" fill="#f0f0ff"></path><path d="M0 168.7C-9.6 149.9 -19.1 131.1 -35.2 131.2C-51.2 131.4 -73.6 150.5 -84.4 146.1C-95.1 141.8 -94.1 114 -97.8 97.8C-101.5 81.7 -110 77.2 -122 70.4C-133.9 63.6 -149.4 54.4 -157.8 42.3C-166.1 30.1 -167.4 15.1 -168.7 0L0 0Z" fill="#d2d2ff"></path><path d="M0 135C-7.7 119.9 -15.3 104.8 -28.1 105C-40.9 105.1 -58.9 120.4 -67.5 116.9C-76.1 113.4 -75.3 91.2 -78.3 78.3C-81.2 65.3 -88 61.8 -97.6 56.3C-107.1 50.9 -119.5 43.5 -126.2 33.8C-132.9 24.1 -134 12.1 -135 0L0 0Z" fill="#b1b4fe"></path><path d="M0 101.2C-5.7 89.9 -11.5 78.6 -21.1 78.7C-30.7 78.8 -44.2 90.3 -50.6 87.7C-57.1 85.1 -56.5 68.4 -58.7 58.7C-60.9 49 -66 46.3 -73.2 42.3C-80.4 38.2 -89.6 32.6 -94.7 25.4C-99.7 18.1 -100.5 9 -101.2 0L0 0Z" fill="#8c98fd"></path><path d="M0 67.5C-3.8 60 -7.7 52.4 -14.1 52.5C-20.5 52.5 -29.5 60.2 -33.7 58.5C-38 56.7 -37.6 45.6 -39.1 39.1C-40.6 32.7 -44 30.9 -48.8 28.2C-53.6 25.4 -59.8 21.8 -63.1 16.9C-66.5 12.1 -67 6 -67.5 0L0 0Z" fill="#5e7dfb"></path><path d="M0 33.7C-1.9 30 -3.8 26.2 -7 26.2C-10.2 26.3 -14.7 30.1 -16.9 29.2C-19 28.4 -18.8 22.8 -19.6 19.6C-20.3 16.3 -22 15.4 -24.4 14.1C-26.8 12.7 -29.9 10.9 -31.6 8.5C-33.2 6 -33.5 3 -33.7 0L0 0Z" fill="#3c70fa"></path></g><g transform="translate(0, 900)"><path d="M0 -202.5C20.1 -206.4 40.1 -210.4 52.4 -195.6C64.7 -180.8 69.2 -147.3 74 -128.2C78.8 -109.1 83.9 -104.3 103.9 -103.9C124 -103.5 159 -107.4 168 -97C177 -86.6 159.9 -61.8 161.3 -43.2C162.7 -24.7 182.6 -12.3 202.5 0L0 0Z" fill="#f0f0ff"></path><path d="M0 -168.7C16.7 -172 33.4 -175.3 43.7 -163C53.9 -150.7 57.7 -122.7 61.7 -106.8C65.7 -90.9 69.9 -87 86.6 -86.6C103.3 -86.3 132.5 -89.5 140 -80.8C147.5 -72.1 133.3 -51.5 134.4 -36C135.6 -20.6 152.2 -10.3 168.7 0L0 0Z" fill="#d2d2ff"></path><path d="M0 -135C13.4 -137.6 26.8 -140.3 34.9 -130.4C43.1 -120.5 46.1 -98.2 49.3 -85.4C52.5 -72.7 55.9 -69.6 69.3 -69.3C82.7 -69 106 -71.6 112 -64.7C118 -57.7 106.6 -41.2 107.5 -28.8C108.5 -16.4 121.7 -8.2 135 0L0 0Z" fill="#b1b4fe"></path><path d="M0 -101.2C10 -103.2 20.1 -105.2 26.2 -97.8C32.3 -90.4 34.6 -73.6 37 -64.1C39.4 -54.5 41.9 -52.2 52 -52C62 -51.8 79.5 -53.7 84 -48.5C88.5 -43.3 80 -30.9 80.7 -21.6C81.4 -12.3 91.3 -6.2 101.2 0L0 0Z" fill="#8c98fd"></path><path d="M0 -67.5C6.7 -68.8 13.4 -70.1 17.5 -65.2C21.6 -60.3 23.1 -49.1 24.7 -42.7C26.3 -36.4 28 -34.8 34.6 -34.6C41.3 -34.5 53 -35.8 56 -32.3C59 -28.9 53.3 -20.6 53.8 -14.4C54.2 -8.2 60.9 -4.1 67.5 0L0 0Z" fill="#5e7dfb"></path><path d="M0 -33.7C3.3 -34.4 6.7 -35.1 8.7 -32.6C10.8 -30.1 11.5 -24.5 12.3 -21.4C13.1 -18.2 14 -17.4 17.3 -17.3C20.7 -17.3 26.5 -17.9 28 -16.2C29.5 -14.4 26.7 -10.3 26.9 -7.2C27.1 -4.1 30.4 -2.1 33.7 0L0 0Z" fill="#3c70fa"></path></g></svg>