<svg id="visual" viewBox="0 0 960 540" width="960" height="540" xmlns="http://www.w3.org/2000/svg" xmlns:xlink="http://www.w3.org/1999/xlink" version="1.1"><rect x="0" y="0" width="960" height="540" fill="#ffffff"></rect><defs><linearGradient id="grad1_0" x1="43.8%" y1="0%" x2="100%" y2="100%"><stop offset="14.444444444444446%" stop-color="#3c70fa" stop-opacity="1"></stop><stop offset="85.55555555555554%" stop-color="#3c70fa" stop-opacity="1"></stop></linearGradient></defs><defs><linearGradient id="grad1_1" x1="43.8%" y1="0%" x2="100%" y2="100%"><stop offset="14.444444444444446%" stop-color="#3c70fa" stop-opacity="1"></stop><stop offset="85.55555555555554%" stop-color="#778afc" stop-opacity="1"></stop></linearGradient></defs><defs><linearGradient id="grad1_2" x1="43.8%" y1="0%" x2="100%" y2="100%"><stop offset="14.444444444444446%" stop-color="#9fa6fe" stop-opacity="1"></stop><stop offset="85.55555555555554%" stop-color="#778afc" stop-opacity="1"></stop></linearGradient></defs><defs><linearGradient id="grad1_3" x1="43.8%" y1="0%" x2="100%" y2="100%"><stop offset="14.444444444444446%" stop-color="#9fa6fe" stop-opacity="1"></stop><stop offset="85.55555555555554%" stop-color="#c2c3ff" stop-opacity="1"></stop></linearGradient></defs><defs><linearGradient id="grad1_4" x1="43.8%" y1="0%" x2="100%" y2="100%"><stop offset="14.444444444444446%" stop-color="#e1e0ff" stop-opacity="1"></stop><stop offset="85.55555555555554%" stop-color="#c2c3ff" stop-opacity="1"></stop></linearGradient></defs><defs><linearGradient id="grad1_5" x1="43.8%" y1="0%" x2="100%" y2="100%"><stop offset="14.444444444444446%" stop-color="#e1e0ff" stop-opacity="1"></stop><stop offset="85.55555555555554%" stop-color="#ffffff" stop-opacity="1"></stop></linearGradient></defs><defs><linearGradient id="grad2_0" x1="0%" y1="0%" x2="56.3%" y2="100%"><stop offset="14.444444444444446%" stop-color="#3c70fa" stop-opacity="1"></stop><stop offset="85.55555555555554%" stop-color="#3c70fa" stop-opacity="1"></stop></linearGradient></defs><defs><linearGradient id="grad2_1" x1="0%" y1="0%" x2="56.3%" y2="100%"><stop offset="14.444444444444446%" stop-color="#778afc" stop-opacity="1"></stop><stop offset="85.55555555555554%" stop-color="#3c70fa" stop-opacity="1"></stop></linearGradient></defs><defs><linearGradient id="grad2_2" x1="0%" y1="0%" x2="56.3%" y2="100%"><stop offset="14.444444444444446%" stop-color="#778afc" stop-opacity="1"></stop><stop offset="85.55555555555554%" stop-color="#9fa6fe" stop-opacity="1"></stop></linearGradient></defs><defs><linearGradient id="grad2_3" x1="0%" y1="0%" x2="56.3%" y2="100%"><stop offset="14.444444444444446%" stop-color="#c2c3ff" stop-opacity="1"></stop><stop offset="85.55555555555554%" stop-color="#9fa6fe" stop-opacity="1"></stop></linearGradient></defs><defs><linearGradient id="grad2_4" x1="0%" y1="0%" x2="56.3%" y2="100%"><stop offset="14.444444444444446%" stop-color="#c2c3ff" stop-opacity="1"></stop><stop offset="85.55555555555554%" stop-color="#e1e0ff" stop-opacity="1"></stop></linearGradient></defs><defs><linearGradient id="grad2_5" x1="0%" y1="0%" x2="56.3%" y2="100%"><stop offset="14.444444444444446%" stop-color="#ffffff" stop-opacity="1"></stop><stop offset="85.55555555555554%" stop-color="#e1e0ff" stop-opacity="1"></stop></linearGradient></defs><g transform="translate(960, 0)"><path d="M0 243C-22.9 245.5 -45.8 248 -62.9 234.7C-80 221.4 -91.2 192.3 -98 169.7C-104.8 147.2 -107.2 131.2 -123 123C-138.9 114.9 -168.3 114.7 -179.3 103.5C-190.2 92.3 -182.7 70.1 -190.3 51C-197.8 31.9 -220.4 16 -243 0L0 0Z" fill="#f0f0ff"></path><path d="M0 202.5C-19.1 204.6 -38.2 206.7 -52.4 195.6C-66.6 184.5 -76 160.3 -81.7 141.5C-87.3 122.6 -89.3 109.3 -102.5 102.5C-115.8 95.8 -140.3 95.6 -149.4 86.3C-158.5 76.9 -152.3 58.4 -158.6 42.5C-164.9 26.6 -183.7 13.3 -202.5 0L0 0Z" fill="#d2d2ff"></path><path d="M0 162C-15.3 163.7 -30.5 165.3 -41.9 156.5C-53.3 147.6 -60.8 128.2 -65.3 113.2C-69.9 98.1 -71.4 87.4 -82 82C-92.6 76.6 -112.2 76.5 -119.5 69C-126.8 61.5 -121.8 46.7 -126.9 34C-131.9 21.3 -146.9 10.6 -162 0L0 0Z" fill="#b1b4fe"></path><path d="M0 121.5C-11.5 122.8 -22.9 124 -31.4 117.4C-40 110.7 -45.6 96.2 -49 84.9C-52.4 73.6 -53.6 65.6 -61.5 61.5C-69.5 57.5 -84.2 57.4 -89.6 51.8C-95.1 46.1 -91.4 35 -95.1 25.5C-98.9 16 -110.2 8 -121.5 0L0 0Z" fill="#8c98fd"></path><path d="M0 81C-7.6 81.8 -15.3 82.7 -21 78.2C-26.7 73.8 -30.4 64.1 -32.7 56.6C-34.9 49.1 -35.7 43.7 -41 41C-46.3 38.3 -56.1 38.2 -59.8 34.5C-63.4 30.8 -60.9 23.4 -63.4 17C-65.9 10.6 -73.5 5.3 -81 0L0 0Z" fill="#5e7dfb"></path><path d="M0 40.5C-3.8 40.9 -7.6 41.3 -10.5 39.1C-13.3 36.9 -15.2 32.1 -16.3 28.3C-17.5 24.5 -17.9 21.9 -20.5 20.5C-23.2 19.2 -28.1 19.1 -29.9 17.3C-31.7 15.4 -30.5 11.7 -31.7 8.5C-33 5.3 -36.7 2.7 -40.5 0L0 0Z" fill="#3c70fa"></path></g><g transform="translate(0, 540)"><path d="M0 -243C23.2 -245.8 46.5 -248.7 62.9 -234.7C79.3 -220.8 88.9 -190.1 97.5 -168.9C106.1 -147.6 113.5 -135.9 125.9 -125.9C138.2 -115.8 155.3 -107.6 165.4 -95.5C175.5 -83.4 178.5 -67.5 190.3 -51C202 -34.4 222.5 -17.2 243 0L0 0Z" fill="#f0f0ff"></path><path d="M0 -202.5C19.4 -204.9 38.7 -207.2 52.4 -195.6C66.1 -184 74.1 -158.4 81.2 -140.7C88.4 -123 94.6 -113.2 104.9 -104.9C115.2 -96.5 129.4 -89.6 137.8 -79.6C146.2 -69.5 148.8 -56.3 158.6 -42.5C168.4 -28.7 185.4 -14.3 202.5 0L0 0Z" fill="#d2d2ff"></path><path d="M0 -162C15.5 -163.9 31 -165.8 41.9 -156.5C52.9 -147.2 59.3 -126.7 65 -112.6C70.7 -98.4 75.7 -90.6 83.9 -83.9C92.1 -77.2 103.5 -71.7 110.3 -63.7C117 -55.6 119 -45 126.9 -34C134.7 -23 148.3 -11.5 162 0L0 0Z" fill="#b1b4fe"></path><path d="M0 -121.5C11.6 -122.9 23.2 -124.3 31.4 -117.4C39.7 -110.4 44.5 -95.1 48.7 -84.4C53 -73.8 56.8 -67.9 62.9 -62.9C69.1 -57.9 77.7 -53.8 82.7 -47.8C87.7 -41.7 89.3 -33.8 95.1 -25.5C101 -17.2 111.3 -8.6 121.5 0L0 0Z" fill="#8c98fd"></path><path d="M0 -81C7.7 -81.9 15.5 -82.9 21 -78.2C26.4 -73.6 29.6 -63.4 32.5 -56.3C35.4 -49.2 37.8 -45.3 42 -42C46.1 -38.6 51.8 -35.9 55.1 -31.8C58.5 -27.8 59.5 -22.5 63.4 -17C67.3 -11.5 74.2 -5.7 81 0L0 0Z" fill="#5e7dfb"></path><path d="M0 -40.5C3.9 -41 7.7 -41.4 10.5 -39.1C13.2 -36.8 14.8 -31.7 16.2 -28.1C17.7 -24.6 18.9 -22.6 21 -21C23 -19.3 25.9 -17.9 27.6 -15.9C29.2 -13.9 29.8 -11.3 31.7 -8.5C33.7 -5.7 37.1 -2.9 40.5 0L0 0Z" fill="#3c70fa"></path></g></svg>