<svg id="visual" viewBox="0 0 900 600" width="900" height="600" xmlns="http://www.w3.org/2000/svg" xmlns:xlink="http://www.w3.org/1999/xlink" version="1.1"><rect x="0" y="0" width="900" height="600" fill="#ffffff"></rect><defs><linearGradient id="grad1_0" x1="33.3%" y1="0%" x2="100%" y2="100%"><stop offset="20%" stop-color="#3c70fa" stop-opacity="1"></stop><stop offset="80%" stop-color="#3c70fa" stop-opacity="1"></stop></linearGradient></defs><defs><linearGradient id="grad1_1" x1="33.3%" y1="0%" x2="100%" y2="100%"><stop offset="20%" stop-color="#3c70fa" stop-opacity="1"></stop><stop offset="80%" stop-color="#778afc" stop-opacity="1"></stop></linearGradient></defs><defs><linearGradient id="grad1_2" x1="33.3%" y1="0%" x2="100%" y2="100%"><stop offset="20%" stop-color="#9fa6fe" stop-opacity="1"></stop><stop offset="80%" stop-color="#778afc" stop-opacity="1"></stop></linearGradient></defs><defs><linearGradient id="grad1_3" x1="33.3%" y1="0%" x2="100%" y2="100%"><stop offset="20%" stop-color="#9fa6fe" stop-opacity="1"></stop><stop offset="80%" stop-color="#c2c3ff" stop-opacity="1"></stop></linearGradient></defs><defs><linearGradient id="grad1_4" x1="33.3%" y1="0%" x2="100%" y2="100%"><stop offset="20%" stop-color="#e1e0ff" stop-opacity="1"></stop><stop offset="80%" stop-color="#c2c3ff" stop-opacity="1"></stop></linearGradient></defs><defs><linearGradient id="grad1_5" x1="33.3%" y1="0%" x2="100%" y2="100%"><stop offset="20%" stop-color="#e1e0ff" stop-opacity="1"></stop><stop offset="80%" stop-color="#ffffff" stop-opacity="1"></stop></linearGradient></defs><defs><linearGradient id="grad2_0" x1="0%" y1="0%" x2="66.7%" y2="100%"><stop offset="20%" stop-color="#3c70fa" stop-opacity="1"></stop><stop offset="80%" stop-color="#3c70fa" stop-opacity="1"></stop></linearGradient></defs><defs><linearGradient id="grad2_1" x1="0%" y1="0%" x2="66.7%" y2="100%"><stop offset="20%" stop-color="#778afc" stop-opacity="1"></stop><stop offset="80%" stop-color="#3c70fa" stop-opacity="1"></stop></linearGradient></defs><defs><linearGradient id="grad2_2" x1="0%" y1="0%" x2="66.7%" y2="100%"><stop offset="20%" stop-color="#778afc" stop-opacity="1"></stop><stop offset="80%" stop-color="#9fa6fe" stop-opacity="1"></stop></linearGradient></defs><defs><linearGradient id="grad2_3" x1="0%" y1="0%" x2="66.7%" y2="100%"><stop offset="20%" stop-color="#c2c3ff" stop-opacity="1"></stop><stop offset="80%" stop-color="#9fa6fe" stop-opacity="1"></stop></linearGradient></defs><defs><linearGradient id="grad2_4" x1="0%" y1="0%" x2="66.7%" y2="100%"><stop offset="20%" stop-color="#c2c3ff" stop-opacity="1"></stop><stop offset="80%" stop-color="#e1e0ff" stop-opacity="1"></stop></linearGradient></defs><defs><linearGradient id="grad2_5" x1="0%" y1="0%" x2="66.7%" y2="100%"><stop offset="20%" stop-color="#ffffff" stop-opacity="1"></stop><stop offset="80%" stop-color="#e1e0ff" stop-opacity="1"></stop></linearGradient></defs><g transform="translate(900, 0)"><path d="M0 297.5C-33.7 271.4 -67.4 245.2 -92.2 222.7C-117 200.1 -132.9 181 -166.2 166.2C-199.4 151.4 -250 140.8 -274.8 113.8C-299.6 86.8 -298.5 43.4 -297.5 0L0 0Z" fill="#f0f0ff"></path><path d="M0 247.9C-28.1 226.1 -56.2 204.4 -76.9 185.5C-97.5 166.7 -110.8 150.8 -138.5 138.5C-166.2 126.1 -208.4 117.3 -229 94.9C-249.7 72.4 -248.8 36.2 -247.9 0L0 0Z" fill="#d2d2ff"></path><path d="M0 198.3C-22.5 180.9 -45 163.5 -61.5 148.4C-78 133.4 -88.6 120.7 -110.8 110.8C-132.9 100.9 -166.7 93.9 -183.2 75.9C-199.7 57.9 -199 28.9 -198.3 0L0 0Z" fill="#b1b4fe"></path><path d="M0 148.7C-16.9 135.7 -33.7 122.6 -46.1 111.3C-58.5 100 -66.5 90.5 -83.1 83.1C-99.7 75.7 -125 70.4 -137.4 56.9C-149.8 43.4 -149.3 21.7 -148.7 0L0 0Z" fill="#8c98fd"></path><path d="M0 99.2C-11.2 90.5 -22.5 81.7 -30.7 74.2C-39 66.7 -44.3 60.3 -55.4 55.4C-66.5 50.5 -83.3 46.9 -91.6 37.9C-99.9 28.9 -99.5 14.5 -99.2 0L0 0Z" fill="#5e7dfb"></path><path d="M0 49.6C-5.6 45.2 -11.2 40.9 -15.4 37.1C-19.5 33.3 -22.2 30.2 -27.7 27.7C-33.2 25.2 -41.7 23.5 -45.8 19C-49.9 14.5 -49.8 7.2 -49.6 0L0 0Z" fill="#3c70fa"></path></g><g transform="translate(0, 600)"><path d="M0 -297.5C37.7 -292.7 75.4 -287.9 113.8 -274.8C152.3 -261.8 191.5 -240.5 207.9 -207.9C224.3 -175.3 218 -131.4 229.1 -94.9C240.3 -58.4 268.9 -29.2 297.5 0L0 0Z" fill="#f0f0ff"></path><path d="M0 -247.9C31.4 -243.9 62.8 -239.9 94.9 -229C126.9 -218.1 159.6 -200.4 173.2 -173.2C186.9 -146.1 181.7 -109.5 190.9 -79.1C200.2 -48.6 224 -24.3 247.9 0L0 0Z" fill="#d2d2ff"></path><path d="M0 -198.3C25.1 -195.1 50.3 -191.9 75.9 -183.2C101.5 -174.5 127.6 -160.3 138.6 -138.6C149.5 -116.9 145.3 -87.6 152.7 -63.3C160.2 -38.9 179.2 -19.5 198.3 0L0 0Z" fill="#b1b4fe"></path><path d="M0 -148.7C18.8 -146.3 37.7 -143.9 56.9 -137.4C76.1 -130.9 95.7 -120.2 103.9 -103.9C112.2 -87.7 109 -65.7 114.6 -47.5C120.1 -29.2 134.4 -14.6 148.7 0L0 0Z" fill="#8c98fd"></path><path d="M0 -99.2C12.6 -97.6 25.1 -96 37.9 -91.6C50.8 -87.3 63.8 -80.2 69.3 -69.3C74.8 -58.4 72.7 -43.8 76.4 -31.6C80.1 -19.5 89.6 -9.7 99.2 0L0 0Z" fill="#5e7dfb"></path><path d="M0 -49.6C6.3 -48.8 12.6 -48 19 -45.8C25.4 -43.6 31.9 -40.1 34.6 -34.6C37.4 -29.2 36.3 -21.9 38.2 -15.8C40 -9.7 44.8 -4.9 49.6 0L0 0Z" fill="#3c70fa"></path></g></svg>