<svg id="visual" viewBox="0 0 960 540" width="960" height="540" xmlns="http://www.w3.org/2000/svg" xmlns:xlink="http://www.w3.org/1999/xlink" version="1.1"><rect x="0" y="0" width="960" height="540" fill="#ffffff"></rect><defs><linearGradient id="grad1_0" x1="43.8%" y1="0%" x2="100%" y2="100%"><stop offset="14.444444444444446%" stop-color="#0262df" stop-opacity="1"></stop><stop offset="85.55555555555554%" stop-color="#0262df" stop-opacity="1"></stop></linearGradient></defs><defs><linearGradient id="grad1_1" x1="43.8%" y1="0%" x2="100%" y2="100%"><stop offset="14.444444444444446%" stop-color="#0262df" stop-opacity="1"></stop><stop offset="85.55555555555554%" stop-color="#a5acf1" stop-opacity="1"></stop></linearGradient></defs><defs><linearGradient id="grad1_2" x1="43.8%" y1="0%" x2="100%" y2="100%"><stop offset="14.444444444444446%" stop-color="#ffffff" stop-opacity="1"></stop><stop offset="85.55555555555554%" stop-color="#a5acf1" stop-opacity="1"></stop></linearGradient></defs><defs><linearGradient id="grad2_0" x1="0%" y1="0%" x2="56.3%" y2="100%"><stop offset="14.444444444444446%" stop-color="#0262df" stop-opacity="1"></stop><stop offset="85.55555555555554%" stop-color="#0262df" stop-opacity="1"></stop></linearGradient></defs><defs><linearGradient id="grad2_1" x1="0%" y1="0%" x2="56.3%" y2="100%"><stop offset="14.444444444444446%" stop-color="#a5acf1" stop-opacity="1"></stop><stop offset="85.55555555555554%" stop-color="#0262df" stop-opacity="1"></stop></linearGradient></defs><defs><linearGradient id="grad2_2" x1="0%" y1="0%" x2="56.3%" y2="100%"><stop offset="14.444444444444446%" stop-color="#a5acf1" stop-opacity="1"></stop><stop offset="85.55555555555554%" stop-color="#ffffff" stop-opacity="1"></stop></linearGradient></defs><g transform="translate(960, 0)"><path d="M0 378C-46 370.4 -92 362.9 -144.3 348.3C-196.6 333.7 -255.1 312.1 -267.3 267.3C-279.4 222.5 -245.2 154.4 -255.9 106C-266.6 57.6 -322.3 28.8 -378 0L0 0Z" fill="#d3d5f8"></path><path d="M0 252C-30.7 247 -61.3 241.9 -96.2 232.2C-131 222.5 -170.1 208.1 -178.2 178.2C-186.3 148.3 -163.5 102.9 -170.6 70.7C-177.8 38.4 -214.9 19.2 -252 0L0 0Z" fill="#6f86e8"></path><path d="M0 126C-15.3 123.5 -30.7 121 -48.1 116.1C-65.5 111.2 -85 104 -89.1 89.1C-93.1 74.2 -81.7 51.5 -85.3 35.3C-88.9 19.2 -107.4 9.6 -126 0L0 0Z" fill="#0262df"></path></g><g transform="translate(0, 540)"><path d="M0 -378C46.8 -371.5 93.7 -365 144.7 -349.2C195.6 -333.5 250.8 -308.4 263.8 -263.8C276.7 -219.1 247.6 -154.8 259.6 -107.5C271.6 -60.3 324.8 -30.2 378 0L0 0Z" fill="#d3d5f8"></path><path d="M0 -252C31.2 -247.7 62.4 -243.3 96.4 -232.8C130.4 -222.3 167.2 -205.6 175.8 -175.8C184.5 -146.1 165.1 -103.2 173.1 -71.7C181.1 -40.2 216.5 -20.1 252 0L0 0Z" fill="#6f86e8"></path><path d="M0 -126C15.6 -123.8 31.2 -121.7 48.2 -116.4C65.2 -111.2 83.6 -102.8 87.9 -87.9C92.2 -73 82.5 -51.6 86.5 -35.8C90.5 -20.1 108.3 -10.1 126 0L0 0Z" fill="#0262df"></path></g></svg>