<?xml version="1.0" encoding="UTF-8" standalone="no" ?>
<!DOCTYPE svg PUBLIC "-//W3C//DTD SVG 1.1//EN" "http://www.w3.org/Graphics/SVG/1.1/DTD/svg11.dtd">
<svg xmlns="http://www.w3.org/2000/svg" xmlns:xlink="http://www.w3.org/1999/xlink" version="1.1" width="500" height="500" viewBox="0 0 500 500" xml:space="preserve">
<desc>Created with Fabric.js 4.6.0</desc>
<defs>
</defs>
<g transform="matrix(1 0 0 1 114.03 190.97)" id="YDbSw3XY18zdDJki8lYg4"  >
<path style="stroke: rgb(2,98,223); stroke-width: 1; stroke-dasharray: none; stroke-linecap: butt; stroke-dashoffset: 0; stroke-linejoin: miter; stroke-miterlimit: 4; fill: rgb(255,255,255); fill-opacity: 0; fill-rule: nonzero; opacity: 1;" vector-effect="non-scaling-stroke"  transform=" translate(0, 0)" d="M 11.32579 15.18712 C 11.32579 15.18712 -16.872639999999997 8.398610000000001 -10.345229999999999 0.04352000000000089 C -3.817809999999999 -8.31157 8.19263 -15.187119999999998 8.19263 -15.187119999999998" stroke-linecap="round" />
</g>
<g transform="matrix(-1 0 0 1 163.41 189.65)" id="FujXcFbwupGYjON3SqI0T"  >
<path style="stroke: rgb(2,98,223); stroke-width: 1; stroke-dasharray: none; stroke-linecap: butt; stroke-dashoffset: 0; stroke-linejoin: miter; stroke-miterlimit: 4; fill: rgb(255,255,255); fill-opacity: 0; fill-rule: nonzero; opacity: 1;" vector-effect="non-scaling-stroke"  transform=" translate(0, 0)" d="M 11.32579 15.18712 C 11.32579 15.18712 -16.872639999999997 8.398610000000001 -10.345229999999999 0.04352000000000089 C -3.817809999999999 -8.31157 8.19263 -15.187119999999998 8.19263 -15.187119999999998" stroke-linecap="round" />
</g>
<g transform="matrix(-0.78 0 0 0.72 167.01 188.92)" id="TL64-C38izdfvDkdL0cld"  >
<path style="stroke: rgb(2,98,223); stroke-width: 1; stroke-dasharray: none; stroke-linecap: butt; stroke-dashoffset: 0; stroke-linejoin: miter; stroke-miterlimit: 4; fill: rgb(255,255,255); fill-opacity: 0; fill-rule: nonzero; opacity: 1;" vector-effect="non-scaling-stroke"  transform=" translate(0, 0)" d="M 11.32579 15.18712 C 11.32579 15.18712 -16.872639999999997 8.398610000000001 -10.345229999999999 0.04352000000000089 C -3.817809999999999 -8.31157 8.19263 -15.187119999999998 8.19263 -15.187119999999998" stroke-linecap="round" />
</g>
<g transform="matrix(0.78 0 0 0.72 110.43 190.24)" id="NeA8jU4akViMF-hSmh6nK"  >
<path style="stroke: rgb(2,98,223); stroke-width: 1; stroke-dasharray: none; stroke-linecap: butt; stroke-dashoffset: 0; stroke-linejoin: miter; stroke-miterlimit: 4; fill: rgb(255,255,255); fill-opacity: 0; fill-rule: nonzero; opacity: 1;" vector-effect="non-scaling-stroke"  transform=" translate(0, 0)" d="M 11.32579 15.18712 C 11.32579 15.18712 -16.872639999999997 8.398610000000001 -10.345229999999999 0.04352000000000089 C -3.817809999999999 -8.31157 8.19263 -15.187119999999998 8.19263 -15.187119999999998" stroke-linecap="round" />
</g>
<g transform="matrix(-1 0 0 -1 137.94 188.32)" id="U5qpnuEFkaSmwFhr0zo9o"  >
<path style="stroke: rgb(2,98,223); stroke-width: 1; stroke-dasharray: none; stroke-linecap: butt; stroke-dashoffset: 0; stroke-linejoin: miter; stroke-miterlimit: 4; fill: rgb(255,255,255); fill-opacity: 0; fill-rule: nonzero; opacity: 1;" vector-effect="non-scaling-stroke"  transform=" translate(0, 0)" d="M -7.42918 3.77885 C -7.61233 -4.82921 8.13859 5.6103499999999995 7.4059800000000005 -5.012359999999999 C 6.673380000000001 -15.635069999999999 -2.8504300000000002 5.244050000000001 -2.8504300000000002 5.244050000000001 C -2.8504300000000002 5.244050000000001 -7.24603 12.38691 -7.429180000000001 3.778850000000001 z" stroke-linecap="round" />
</g>
<g transform="matrix(1 0 0 -1 144.58 188.32)" id="ktzHyRLnuWw_T1sHI9Mvh"  >
<path style="stroke: rgb(2,98,223); stroke-width: 1; stroke-dasharray: none; stroke-linecap: butt; stroke-dashoffset: 0; stroke-linejoin: miter; stroke-miterlimit: 4; fill: rgb(255,255,255); fill-opacity: 0; fill-rule: nonzero; opacity: 1;" vector-effect="non-scaling-stroke"  transform=" translate(0, 0)" d="M -7.42918 3.77885 C -7.61233 -4.82921 8.13859 5.6103499999999995 7.4059800000000005 -5.012359999999999 C 6.673380000000001 -15.635069999999999 -2.8504300000000002 5.244050000000001 -2.8504300000000002 5.244050000000001 C -2.8504300000000002 5.244050000000001 -7.24603 12.38691 -7.429180000000001 3.778850000000001 z" stroke-linecap="round" />
</g>
<g transform="matrix(1 0 0 -1 142.44 179.32)" id="ff2KO_wUpU_xxMolOWHrc"  >
<path style="stroke: rgb(2,98,223); stroke-width: 1; stroke-dasharray: none; stroke-linecap: butt; stroke-dashoffset: 0; stroke-linejoin: miter; stroke-miterlimit: 4; fill: rgb(255,255,255); fill-opacity: 0; fill-rule: nonzero; opacity: 1;" vector-effect="non-scaling-stroke"  transform=" translate(0, 0)" d="M 0 0" stroke-linecap="round" />
</g>
</svg>